<?xml version="1.0" encoding="UTF-8" standalone="no"?>
<!-- Created with Inkscape (http://www.inkscape.org/) -->

<svg
   xmlns:dc="http://purl.org/dc/elements/1.1/"
   xmlns:cc="http://creativecommons.org/ns#"
   xmlns:rdf="http://www.w3.org/1999/02/22-rdf-syntax-ns#"
   xmlns:svg="http://www.w3.org/2000/svg"
   xmlns="http://www.w3.org/2000/svg"
   xmlns:sodipodi="http://sodipodi.sourceforge.net/DTD/sodipodi-0.dtd"
   xmlns:inkscape="http://www.inkscape.org/namespaces/inkscape"
   id="svg2842"
   version="1.1"
   inkscape:version="0.47 r22583"
   width="942"
   height="1200"
   sodipodi:docname="Kerli K large.png">
  <metadata
     id="metadata2848">
    <rdf:RDF>
      <cc:Work
         rdf:about="">
        <dc:format>image/svg+xml</dc:format>
        <dc:type
           rdf:resource="http://purl.org/dc/dcmitype/StillImage" />
        <dc:title></dc:title>
      </cc:Work>
    </rdf:RDF>
  </metadata>
  <defs
     id="defs2846">
    <inkscape:perspective
       sodipodi:type="inkscape:persp3d"
       inkscape:vp_x="0 : 0.5 : 1"
       inkscape:vp_y="0 : 1000 : 0"
       inkscape:vp_z="1 : 0.5 : 1"
       inkscape:persp3d-origin="0.5 : 0.33333333 : 1"
       id="perspective2850" />
    <inkscape:perspective
       id="perspective2864"
       inkscape:persp3d-origin="0.5 : 0.33333333 : 1"
       inkscape:vp_z="1 : 0.5 : 1"
       inkscape:vp_y="0 : 1000 : 0"
       inkscape:vp_x="0 : 0.5 : 1"
       sodipodi:type="inkscape:persp3d" />
  </defs>
  <sodipodi:namedview
     pagecolor="#ffffff"
     bordercolor="#666666"
     borderopacity="1"
     objecttolerance="10"
     gridtolerance="10"
     guidetolerance="10"
     inkscape:pageopacity="0"
     inkscape:pageshadow="2"
     inkscape:window-width="1366"
     inkscape:window-height="706"
     id="namedview2844"
     showgrid="false"
     inkscape:zoom="0.39333333"
     inkscape:cx="671.47733"
     inkscape:cy="604.34166"
     inkscape:window-x="-8"
     inkscape:window-y="-8"
     inkscape:window-maximized="1"
     inkscape:current-layer="svg2842" />
  <path
     style="fill:#000000"
     d="m 892.20572,1187.6161 c -38.87865,-6.2265 -56.40306,-9.9895 -74.39239,-15.9742 -57.19481,-19.0276 -89.51805,-53.4988 -99.74007,-106.368 -1.73636,-8.9806 -1.86496,-21.1451 -2.35216,-222.49992 l -0.51538,-213 -2.93808,-5.30355 c -5.47892,-9.89008 -14.69571,-16.11641 -25.09232,-16.95095 -5.99128,-0.48093 -6.49517,-0.3099 -31.32791,10.63286 -13.88127,6.1169 -25.55436,11.10886 -25.94018,11.09323 -1.34824,-0.0546 -11.48312,-18.08912 -10.59543,-18.85405 0.49166,-0.42367 5.16892,-2.49782 10.39392,-4.60924 17.21149,-6.95514 54.06952,-23.54063 80.5,-36.22364 14.3,-6.86204 28.12689,-13.44578 30.72643,-14.63055 2.59954,-1.18476 4.73704,-2.67697 4.75,-3.31601 0.0206,-1.01605 -52.75995,-144.45284 -53.385,-145.07941 -0.1888,-0.18927 -78.43107,26.04974 -110.34143,37.00364 l -6.25,2.14545 0,22.08601 c 0,24.22794 0.72529,29.05706 5.90527,39.31854 5.29965,10.49856 10.82066,16.2238 25.80845,26.76314 1.26568,0.89002 0.40617,1.87701 -4.98437,5.72362 -13.10968,9.35487 -22.95295,23.34967 -25.83323,36.72872 -0.86065,3.99776 -1.00669,17.32756 -0.54201,49.47219 0.34982,24.2 0.72143,70.1 0.8258,102 l 0.18975,58 -4.93483,0.25421 c -12.76802,0.65772 -51.11986,3.52305 -70.93483,5.29966 -17.30447,1.55152 -24.34777,2.63333 -33,5.06863 -14.77825,4.15955 -41.32372,14.10364 -65.16585,24.41151 -10.77002,4.6563 -19.66733,8.46599 -19.77181,8.46599 -0.25412,0 0.35408,-10.99905 1.03134,-18.65156 l 0.54442,-6.15155 20.92251,-9.34845 20.92251,-9.34844 0.25844,-282.42292 0.25844,-282.42292 12.5,-3.82992 c 36.20739,-11.09374 132.6029,-37.82424 136.40171,-37.82424 1.32538,0 1.46273,2.54083 1.06764,19.75 -0.73396,31.96923 -1.46658,208.25 -0.86548,208.25 0.3028,0 22.45331,-7.61346 49.22334,-16.91881 45.09088,-15.67372 112.52313,-38.86769 179.26293,-61.65921 15.17457,-5.18209 28.01221,-9.42198 28.52809,-9.42198 0.85105,0 78.88177,195.12723 78.88177,197.25541 0,0.49961 -18.45,7.76622 -41,16.14803 -79.89891,29.69831 -136.46168,51.10379 -136.48072,51.64943 -0.0167,0.47868 15.51956,5.61731 44.48072,14.71204 19.57486,6.14713 38.29663,17.18593 52.76254,31.11005 24.37623,23.46326 37.26802,50.36107 45.90756,95.78293 l 2.25245,11.84211 0.5829,171 c 0.64179,188.27832 0.47909,183.36702 6.91926,208.86712 4.93781,19.5514 9.97289,30.1678 18.86079,39.7678 5.96289,6.4407 11.28832,9.9813 17.9454,11.931 3.28926,0.9633 4.9043,2.2624 7.25654,5.8366 l 3.02564,4.5974 -2.95324,2.6883 c -1.62428,1.4785 -4.66472,3.2057 -6.75654,3.8382 -3.9713,1.2008 -27.60272,2.1486 -32.8033,1.3157 z M 513.61909,695.7327 c 23.51206,-5.54214 39.25069,-29.05922 35.27491,-52.70872 -3.38866,-20.15707 -18.78121,-35.54962 -38.93828,-38.93828 -30.8134,-5.18013 -58.61841,22.62488 -53.43828,53.43828 3.10611,18.47634 16.46926,33.30426 34.18828,37.93572 8.1463,2.1293 14.70653,2.20746 22.91337,0.273 z m -0.41337,-149.95807 c 23.26842,-4.8685 42.13215,-23.73223 47.00065,-47.00065 2.91684,-13.94069 1.1652,-26.66472 -5.54478,-40.27766 -7.81914,-15.86316 -23.68621,-28.005 -41.45587,-31.72299 -13.94069,-2.91684 -26.66472,-1.1652 -40.27766,5.54478 -15.86316,7.81914 -28.005,23.68621 -31.72299,41.45587 -2.91684,13.94069 -1.1652,26.66472 5.54478,40.27766 11.87051,24.08243 39.63333,37.33512 66.45587,31.72299 z M 511.61909,369.7327 c 23.51206,-5.54214 39.25069,-29.05922 35.27491,-52.70872 -3.38866,-20.15707 -18.78121,-35.54962 -38.93828,-38.93828 -30.8134,-5.18013 -58.61841,22.62488 -53.43828,53.43828 3.10611,18.47634 16.46926,33.30426 34.18828,37.93572 8.1463,2.1293 14.70653,2.20746 22.91337,0.273 z m -96.59382,806.4727 c -6.53471,-1.3365 -23.73589,-13.2662 -25.38595,-17.6061 -1.48742,-3.9123 -1.10343,-8.8678 0.8164,-10.5361 3.65948,-3.1799 6.74492,-2.9959 11.89969,0.7097 7.03768,5.0592 14.48154,9.4332 17.32552,10.1805 3.17699,0.8348 15.20557,-1.2173 19.33988,-3.2994 7.90499,-3.9811 12.69894,-10.8801 14.72841,-21.1957 2.61507,-13.2921 -1.55403,-26.9414 -11.05612,-36.1967 -8.70148,-8.4755 -16.20438,-12.2217 -37.23738,-18.5924 -2.83381,-0.8584 -2.09561,0.9095 4.36663,10.4573 6.6991,9.8978 7.9541,14.4573 5.98855,21.7568 -2.7211,10.1054 -9.80624,15.4151 -21.57752,16.1705 -5.23488,0.336 -7.96693,0.044 -10.14748,-1.0833 -3.85448,-1.9932 -9.53948,-8.3368 -16.17405,-18.0477 -8.8476,-12.9501 -16.12199,-15.9411 -29.27463,-12.0365 -14.74675,4.3779 -25.61667,12.1633 -49.4315,35.4045 -24.03462,23.4558 -34.96282,31.498 -51,37.5316 -29.59382,11.1338 -70.55732,4.5922 -101.70719,-16.2421 -14.19774,-9.4961 -30.93771,-27.4292 -39.024748,-41.8064 -14.35784,-25.5254 -17.71411,-52.5788 -10.60724,-85.5 9.37438,-43.42493 35.085378,-79.72079 75.868308,-107.10213 45.60717,-30.6203 106.98214,-49.36857 183.47087,-56.04502 17.99797,-1.57098 77.85351,-1.56036 96,0.017 52.16861,4.53479 92.55847,13.39646 128.61899,28.21942 9.91512,4.07569 12.42836,4.77215 13.40089,3.71363 1.04126,-1.13331 53.57434,-64.93888 53.94799,-65.52409 0.34279,-0.53684 18.53213,11.05 18.53213,11.80525 0,0.79645 -168.44132,207.37664 -173.76723,213.11194 l -2.50357,2.6961 -5.7415,-2.8983 c -20.17177,-10.1827 -79.32938,-36.8959 -98.01997,-44.2618 -15.66026,-6.1718 -42.00268,-14.94907 -55.96773,-18.64843 -50.54179,-13.38859 -99.4016,-9.45432 -147.14123,11.84803 -40.37686,18.0169 -58.37801,47.7524 -51.34678,84.818 5.91657,31.1897 20.55524,49.1056 46.64808,57.0914 8.93581,2.7349 15.90582,3.8931 31.09085,5.1664 14.64393,1.2279 19.02822,0.5028 24.03824,-3.9759 l 3.21084,-2.8702 -5.68656,0.05 c -11.04396,0.098 -17.29385,-6.0688 -18.7907,-18.5402 -1.51566,-12.6281 1.57436,-24.2349 7.39722,-27.7857 5.37308,-3.2765 9.50584,-2.5071 18.07184,3.3643 15.25868,10.4589 17.71835,11.7418 22.5082,11.7403 6.33193,0 11.26198,-1.5758 13.97155,-4.46 2.09933,-2.2346 2.2647,-3.0975 1.71724,-8.96 -0.33318,-3.568 -1.49493,-8.2301 -2.58167,-10.3603 -4.26102,-8.3523 -19.17362,-19.4537 -32.70746,-24.3485 -8.09737,-2.9285 -21.25727,-2.878 -30.74882,0.1181 -11.7614,3.7126 -17.61166,11.0112 -18.85311,23.5204 -0.19607,1.9756 -1.06603,3.3371 -2.54773,3.9871 -2.42989,1.0661 -2.83196,2.0352 -1.25,3.0129 2.73504,1.6903 -0.0339,12.5316 -3.5448,13.8788 -2.39407,0.9187 -6.33746,0.7546 -8.40069,-0.3496 -4.46913,-2.3918 -7.23496,-17.9462 -5.07443,-28.5373 3.5306,-17.3073 20.38866,-33.5434 38.81914,-37.3868 7.34058,-1.5308 21.37025,-1.3523 29.52545,0.3757 18.91365,4.0074 40.16017,17.9773 48.55251,31.9238 4.7186,7.8415 8.00196,17.4452 8.76272,25.6307 0.35601,3.8306 0.84327,6.9647 1.0828,6.9647 0.23953,0 10.63741,-6.3849 23.1064,-14.1887 27.77929,-17.3858 36.55843,-22.1029 45.96252,-24.6962 22.62412,-6.2389 57.00827,-4.9423 73.70838,2.7794 3.3,1.5258 11.4,6.1502 18,10.2764 35.50134,22.1947 62.82861,35.6361 79.60304,39.154 l 5.60303,1.1751 -2.90747,9.3287 -2.90747,9.3287 -4.19557,-0.6957 c -6.72115,-1.1145 -21.17686,-6.2316 -35.19556,-12.4588 -12.73742,-5.658 -13.01875,-5.7314 -13.92837,-3.6387 -3.83758,8.8288 -11.50216,23.1502 -15.05791,28.1358 -12.22044,17.1347 -30.48974,27.2344 -44.19417,24.4315 z M 182.70572,870.0897 c 0,-10.39272 0.31355,-12.83198 2.13245,-16.58933 2.7362,-5.65224 9.68488,-11.07555 23.97371,-18.71103 13.1411,-7.02218 20.39449,-13.0865 21.93935,-18.3428 0.75477,-2.56805 0.96812,-38.55915 0.7094,-119.67256 -0.41416,-129.8423 -0.007,-122.54129 -7.70041,-138 -4.62011,-9.28312 -10.13972,-16.02238 -17.69246,-21.60191 -5.54565,-4.09682 -6.63301,-5.8799 -3.61204,-5.92313 6.05011,-0.0866 24.28002,-21.26676 31.39987,-36.48154 l 3.17907,-6.7935 -0.67132,-120.09996 c -0.36922,-66.05498 -0.95416,-122.44767 -1.29987,-125.3171 -0.58141,-4.82588 -1.25584,-5.89498 -8.99315,-14.25579 -4.60053,-4.97126 -8.36379,-9.37355 -8.36279,-9.78286 9.9e-4,-0.40932 129.48849,-40.99332 287.75,-90.18668 158.2615,-49.193366 289.87744,-90.11412 292.47985,-90.935013 2.60241,-0.820894 4.95709,-1.267098 5.23262,-0.991566 0.27554,0.275533 7.6618,21.396287 16.41391,46.935009 31.28759,91.29732 45.42396,128.899 48.48069,128.95492 1.05424,0.0193 -16.44882,6.69266 -116.60741,44.45884 -20.2117,7.6211 -36.92371,13.66839 -37.1378,13.43841 -0.21409,-0.22997 -11.97989,-34.61813 -26.14622,-76.41813 -14.16633,-41.8 -26.04508,-76.33076 -26.39723,-76.73502 -0.35214,-0.40426 -4.2245,0.34942 -8.60524,1.67485 -131.18093,39.68973 -262.03174,80.97893 -264.80346,83.55718 -0.77392,0.7199 0.48672,335.29104 1.90094,504.50299 l 0.61011,73 -14.83628,3.73831 c -47.81573,12.04816 -100.74474,34.36716 -147.83629,62.33932 -16.88489,10.02955 -18.80819,11.48892 -31.0457,23.55714 -7.17514,7.07588 -13.36264,12.86523 -13.75,12.86523 -0.38737,0 -0.7043,-5.48292 -0.7043,-12.18428 z M 72.455722,787.1117 c -2.53326,-0.92523 -2.75,-1.42703 -2.75,-6.36702 0,-2.94945 1.13571,-18.32445 2.52379,-34.16667 2.81529,-32.13112 3.20281,-46.35093 1.49831,-54.98019 -2.92792,-14.82293 -9.54457,-30.0872 -22.05311,-50.87538 -20.6604,-34.33591 -26.10929,-51.58851 -23.86951,-75.57706 2.7335,-29.27635 14.51828,-54.75683 35.54377,-76.85103 l 8.51096,-8.94356 -2.8271,-0.64087 c -24.01977,-5.44495 -41.1181,-15.98494 -49.70727,-30.64124 -11.1007003,-18.94192 -11.0285903,-53.40193 0.13615,-65.06065 4.35213,-4.54468 13.82059,-5.85815 17.99401,-2.49613 1.78091,1.43466 1.55042,6.38227 -0.74299,15.94873 -2.34212,9.76966 -2.50968,17.77788 -0.56405,26.95733 4.67774,22.06951 20.14241,32.04579 47.38603,30.56879 17.112888,-0.92777 27.583348,-5.10078 36.371278,-14.49579 7.97743,-8.52852 12.00102,-18.88835 13.3864,-34.46698 0.79538,-8.94411 1.10456,-8.73077 -9.08667,-6.27 -7.8191,1.888 -18.62717,1.89836 -25.820398,0.0248 -14.30064,-3.72484 -22.46624,-11.05314 -28.29865,-25.39689 l -2.28025,-5.60791 9.75981,-1.06889 c 12.15021,-1.33069 18.19911,-4.03125 21.95252,-9.80083 2.515578,-3.86683 2.683078,-4.83191 2.625988,-15.13028 -0.0549,-9.90635 -0.38728,-11.86949 -3.342898,-19.74538 -6.00357,-15.99779 -15.79193,-29.67969 -36.66879,-51.25462 -18.73343,-19.35983 -28.5175,-33.8551 -34.89423,-51.69641 -5.51733,-15.43682 -6.97913,-24.20969 -6.96559,-41.80359 0.0127,-16.49697 1.41437,-25.71615 5.9271,-38.98415 14.19281,-41.728573 54.59306,-77.182072 115.505388,-101.362495 21.82212,-8.662748 48.34069,-15.183878 74.08599,-18.218338 15.8662,-1.87006 50.97869,-2.09918 67.91401,-0.44315 52.90658,5.17351 100.97226,21.616055 132,45.155216 22.22154,16.858345 29.93058,21.852917 33.72964,21.852917 9.10419,0 30.26726,-6.422699 48.6725,-14.771429 l 8.90214,-4.038065 3.41908,10.154747 c 1.88049,5.585111 3.49953,10.521267 3.59786,10.969236 0.13608,0.619937 -292.85976,96.685511 -294.88661,96.685511 -0.23904,0 -0.43461,-4.91615 -0.43461,-10.92478 l 0,-10.92478 4.75,-1.40983 c 32.3587,-9.6043 55.25,-17.26748 55.25,-18.49572 0,-3.05112 -10.27872,-21.17094 -16.38321,-28.8811 -6.77562,-8.55783 -16.40496,-16.970176 -25.61679,-22.379247 -16.98697,-9.974542 -42.39711,-15.984543 -67.58225,-15.984543 -48.34699,0 -102.479758,32.11795 -116.575658,69.16644 -4.52635,11.89668 -5.95923,28.21451 -3.80515,43.33356 2.89949,20.35086 11.73883,31.41518 25.14796,31.47804 5.78897,0.0271 9.45994,-1.30638 13.1907,-4.79166 3.21583,-3.00422 8.28873,-12.90078 9.25982,-18.06469 l 0.63531,-3.37831 5.755708,0.6016 c 16.8838,1.7647 27.50556,11.47469 31.01299,28.35083 0.59393,2.8577 0.94052,10.58689 0.77022,17.17599 l -0.30965,11.98018 3.78304,-2.1287 c 11.80279,-6.64138 27.14327,-21.70716 32.12963,-31.55427 8.88726,-17.55066 7.09706,-41.91567 -4.15555,-56.55789 -3.27777,-4.26513 -15.8658,-13.33577 -16.97197,-12.2296 -0.20378,0.20378 0.62947,3.76944 1.85167,7.92369 2.47018,8.39611 1.9268,12.80161 -2.23092,18.08729 -6.26583,7.96571 -28.80203,11.29851 -39.43531,5.83194 -8.41365,-4.32545 -12.308858,-11.04679 -13.195428,-22.76923 -1.63195,-21.57811 9.488328,-32.8396 33.724838,-34.15309 19.36816,-1.04966 34.50017,5.63282 47.86217,21.13653 9.99384,11.59569 15.98004,25.42084 18.18658,42.00193 3.23238,24.28988 -4.46869,44.13686 -24.69169,63.63476 -13.39408,12.91382 -26.43836,20.35048 -41.17371,23.47347 -7.564,1.60311 -17.8414,1.83105 -23.4855,0.52088 -2.09118,-0.48542 -3.66618,-0.50993 -3.5,-0.0544 0.16618,0.45548 10.29122,9.86269 22.50008,20.90491 12.20886,11.04222 23.30747,21.53995 24.66357,23.3283 8.47589,11.17755 14.40003,30.22807 15.33412,49.31064 1.22519,25.02945 -5.06316,46.69544 -20.4448,70.44091 -8.84333,13.65193 -14.48055,20.25408 -36.28841,42.5 -30.579598,31.19387 -43.353428,48.24834 -50.750908,67.75806 -2.91513,7.68822 -3.58476,10.94327 -3.98317,19.36191 -0.5955,12.58324 0.93467,22.01577 4.89763,30.19083 3.69992,7.63245 8.66644,11.58911 16.61946,13.24015 7.92751,1.64574 11.9152,0.23263 17.79354,-6.30551 l 4.69384,-5.22068 -0.6634,-7.32091 c -0.89191,-9.84259 -1.6756,-11.49711 -6.46983,-13.659 -2.25476,-1.01676 -4.09957,-2.25076 -4.09957,-2.74223 0,-2.37099 4.97707,-5.61167 9.5885,-6.24328 8.884028,-1.2168 15.424278,3.51206 20.956978,15.15272 4.43482,9.33078 4.17408,22.97661 -0.61941,32.4161 -4.6877,9.23116 -16.20408,15.24455 -31.704508,16.55482 -6.13523,0.51861 -7.29022,0.89176 -6.87211,2.22018 0.27642,0.87823 3.69445,9.09801 7.59561,18.26617 3.90117,9.16815 7.64636,19.29315 8.32264,22.5 1.67182,7.92761 1.60717,55.85424 -0.0915,67.83062 -2.14504,15.12344 -5.17341,26.60489 -9.29763,35.25 -4.25916,8.92797 -5.34792,9.56422 -12.12857,7.08772 z"
     id="path2854" />
</svg>
